<svg id="Capa_1" data-name="Capa 1" xmlns="http://www.w3.org/2000/svg" viewBox="0 0 1855.32 902.18"><defs><style>.cls-1{font-size:224.85px;font-family:NexaBold, Nexa Bold;}.cls-1,.cls-2,.cls-3{fill:#fff;}.cls-2{opacity:0.7;}.cls-3{opacity:0.9;}</style></defs><text class="cls-1" transform="translate(718.44 832.93)">app</text><rect class="cls-2" x="613.81" y="321.2" width="183.21" height="324.24" rx="91.6"/><path class="cls-3" d="M735.63,410.12c-63.6,0-107,64.21-83.53,123.32C699.67,653.27,816.28,735.2,953.51,735.2c179.91,0,324.32-140.75,324.32-323.1S1133.42,89,953.51,89H951.6c-81.3.45-121.23,99.48-63.75,157h0c15.26,15.27,36.32,22.92,57.89,21.89q3.85-.18,7.77-.18c79.6,0,140.75,57.52,140.75,144.4s-61.15,144.41-140.75,144.41c-59.63,0-108.09-33.48-128.59-86.87-13.6-35.43-46.71-59.52-84.66-59.52Z" transform="translate(-32.34 -88.91)"/><rect class="cls-2" x="656.97" y="193.33" width="158.78" height="154.71" rx="77.35" transform="translate(374.73 -530.32) rotate(45)"/><path class="cls-2" d="M1794,88.91H1520.07c-103.16,1.39-186.93,83.48-187.33,186.61h0v.73h0l-.17,6.77c2.19,53,20.85,91.26,50.21,122.17,1.73-65.75,53.82-122.11,118.17-128.94h293a93.67,93.67,0,0,0,93.67-93.67h0C1887.66,130.85,1845.83,91.71,1794,88.91Z" transform="translate(-32.34 -88.91)"/><path class="cls-2" d="M1821.66,423.65a130.44,130.44,0,0,1-122.12,126.67H1412.16A93.67,93.67,0,0,0,1318.49,644h0a93.67,93.67,0,0,0,93.67,93.67h273.91c103.38,0,187.2-83.73,187.34-187.08h0v-.26h0v-2.51C1871.23,494.81,1851,454.56,1821.66,423.65Z" transform="translate(-32.34 -88.91)"/><path class="cls-3" d="M1626.4,90.48c-100.09,24-121.38,89.24-122.79,136.4-1,33,16.53,64,45.72,79.44a75.39,75.39,0,0,0,10.85,4.85c57.25,19.33,305.25,42.92,313.24,236.37v4.19c.29,60.13-32.16,103.45-32.16,103.45-44.73,67.1-118.82,79.69-118.82,79.69-47.53,5.59-143.29,2.09-143.29,2.09,103.84-42.7,119.71-116.26,119.71-157.25a60.49,60.49,0,0,0-35.23-55.06c-31.4-14.46-76.47-24.82-95-28.74-126.46-28.74-235.56-89-236.19-218.18-.3-60.12,31.75-104.45,31.75-104.45,39.54-60.5,105.71-76.17,105.71-76.17,26-11,135.69-7.66,157.81-6.85l-.64.1C1626.82,90.39,1626.61,90.43,1626.4,90.48Z" transform="translate(-32.34 -88.91)"/><path class="cls-2" d="M507.84,88.91H233.93C130.76,90.3,47,172.39,46.59,275.52h0v.73h0L46.41,283c2.19,53,20.85,91.26,50.22,122.17,1.72-65.75,53.82-122.11,118.16-128.94h293a93.67,93.67,0,0,0,93.67-93.67h0C601.51,130.85,559.69,91.71,507.84,88.91Z" transform="translate(-32.34 -88.91)"/><path class="cls-2" d="M535.51,423.65A130.42,130.42,0,0,1,413.4,550.32H126A93.67,93.67,0,0,0,32.34,644h0A93.67,93.67,0,0,0,126,737.66H399.93c103.38,0,187.2-83.73,187.34-187.08h0v-.26h0v-2.51C585.08,494.81,564.88,454.56,535.51,423.65Z" transform="translate(-32.34 -88.91)"/><path class="cls-3" d="M340.25,90.48c-100.08,24-121.37,89.24-122.79,136.4-1,33,16.53,64,45.72,79.44A75,75,0,0,0,274,311.17c57.24,19.33,305.24,42.92,313.23,236.37v4.19c.29,60.13-32.15,103.45-32.15,103.45-44.74,67.1-118.83,79.69-118.83,79.69C388.76,740.46,293,737,293,737c103.85-42.7,119.72-116.26,119.72-157.25a60.48,60.48,0,0,0-35.24-55.06c-31.4-14.46-76.46-24.82-95-28.74C156,467.17,46.89,406.88,46.26,277.73,46,217.61,78,173.28,78,173.28c39.54-60.5,105.71-76.17,105.71-76.17,25.94-11,135.68-7.66,157.8-6.85l-.64.1C340.68,90.39,340.46,90.43,340.25,90.48Z" transform="translate(-32.34 -88.91)"/></svg>